Enhance Definition 720x480 HD Ready

Dolby Digital Stereo

Advanced Video Coding - H.264/MPEG-4 AVC

----------------------------------------------------------

Assassins (1995)  
http://www.imdb.com/title/tt0112401/

Robert Rath is a professional hit man who, despite his stature as the best in the business, has grown disillusioned about his work and his life. But as he contemplates a way out of the shadowy world he inhabits, Rath is shocked to discover that he himself is the target of assassination. A ruthless, ambitious young killer named Miguel Bain wants to become the number one assassin and knows he must remove Rath to do so. The two men's lives and careers intersect when both of them are sent to eliminate Electra, a beautiful "information assassin"--an electronic surveillance expert who possesses valuable secrets on a computer disk. Rath and Electra team up to make a break for freedom--but they have to get past Bain first

Sylvester Stallone, Antonio Banderas, Julianne Moore, Anatoly Davydov, Muse Watson

------------------------------------------------------------

Format                           : MPEG-4
Format profile                   : Base Media / Version 2
Codec ID                         : mp42
File size                        : 985 MiB
Duration                         : 2h 7mn
Overall bit rate                 : 1 082 Kbps
Encoded date                     : UTC 2010-08-06 01:30:18
Tagged date                      : UTC 2010-08-06 11:11:09

Video
ID                               : 1
Format                           : AVC
Format/Info                      : Advanced Video Codec
Format profile                   : Main@L3.0
Format settings, CABAC           : Yes
Format settings, ReFrames        : 2 frames
Codec ID                         : avc1
Codec ID/Info                    : Advanced Video Coding
Duration                         : 2h 7mn
Bit rate mode                    : Variable
Bit rate                         : 916 Kbps
Maximum bit rate                 : 4 359 Kbps
Width                            : 720 pixels
Height                           : 480 pixels
Display aspect ratio             : 3:2
Frame rate mode                  : Constant
Frame rate                       : 25.000 fps
Standard                         : PAL
Resolution                       : 8 bits
Colorimetry                      : 4:2:0
Scan type                        : Progressive
Bits/(Pixel*Frame)               : 0.106
Stream size                      : 834 MiB (85%)
Language                         : English
Encoded date                     : UTC 2010-08-06 01:30:22
Tagged date                      : UTC 2010-08-06 11:11:09

Audio
ID                               : 2
Format                           : AAC
Format/Info                      : Advanced Audio Codec
Format version                   : Version 4
Format profile                   : LC
Format settings, SBR             : No
Codec ID                         : 40
Duration                         : 2h 7mn
Bit rate mode                    : Variable
Bit rate                         : 160 Kbps
Maximum bit rate                 : 172 Kbps
Channel(s)                       : 2 channels
Channel positions                : L R
Sampling rate                    : 48.0 KHz
Stream size                      : 146 MiB (15%)
Title                            : English
Language                         : English
Encoded date                     : UTC 2010-08-06 01:30:22
Tagged date                      : UTC 2010-08-06 11:11:09

Text
ID                               : 3
Format                           : VobSub
Codec ID                         : subp
Codec ID/Info                    : The same subtitle format used on DVDs
Duration                         : 2h 1mn
Bit rate mode                    : Variable
Bit rate                         : 1 589 bps
Stream size                      : 1.38 MiB (0%)
Title                            : Greek
Language                         : Greek
Encoded date                     : UTC 2010-08-06 01:30:22
Tagged date                      : UTC 2010-08-06 11:11:09

